# xmcd
#
# Track frame offsets: 
#        150
#        15007
#        32661
#        50424
#        65725
#        79023
#        95369
#        113672
#        130328
#        145994
#        162761
#        180977
#
# Disc length: 2649 seconds
#
# Revision: 7
# Processed by: cddbd v1.5.2PL0 Copyright (c) Steve Scherf et al.
# Submitted via: ExactAudioCopyFreeDBPlugin 1.0
#
DISCID=8e0a570c
DTITLE=LeAnn Rimes - This Woman
DYEAR=2005
DGENRE=Country
TTITLE0=I Want To With You
TTITLE1=You Take Me Home
TTITLE2=Something's Gotta Give
TTITLE3=Won't Be Lonely Long
TTITLE4=Nothin' 'Bout Love Makes Sense
TTITLE5=Probably Wouldn't Be This Way
TTITLE6=The Weight Of Love
TTITLE7=With You
TTITLE8=I Got It Bad
TTITLE9=I Dare You
TTITLE10=When This Woman Loves A Man
TTITLE11=Some People
EXTD=YEAR: 2004 MediaType: Audio CD Producer: Unknown
EXTT0=
EXTT1=
EXTT2=
EXTT3=
EXTT4=
EXTT5=
EXTT6=
EXTT7=
EXTT8=
EXTT9=
EXTT10=
EXTT11=
PLAYORDER=
